<svg width="33" height="33" viewBox="0 0 33 33" fill="none" xmlns="http://www.w3.org/2000/svg">
<path d="M13.983 29.9443C13.983 30.5486 13.819 31.1394 13.5117 31.6418C13.2044 32.1443 12.7676 32.536 12.2566 32.7672C11.7456 32.9985 11.1833 33.059 10.6408 32.9411C10.0983 32.8232 9.6 32.5322 9.20889 32.1049C8.81778 31.6775 8.55143 31.1331 8.44352 30.5404C8.33562 29.9477 8.391 29.3333 8.60267 28.775C8.81433 28.2166 9.17278 27.7394 9.63268 27.4037C10.0926 27.0679 10.6333 26.8887 11.1864 26.8887C11.9281 26.8887 12.6394 27.2107 13.1639 27.7837C13.6883 28.3567 13.983 29.1339 13.983 29.9443ZM25.7287 26.8887C25.1756 26.8887 24.6349 27.0679 24.175 27.4037C23.7151 27.7394 23.3566 28.2166 23.145 28.775C22.9333 29.3333 22.8779 29.9477 22.9858 30.5404C23.0937 31.1331 23.3601 31.6775 23.7512 32.1049C24.1423 32.5322 24.6406 32.8232 25.1831 32.9411C25.7256 33.059 26.2879 32.9985 26.7989 32.7672C27.3099 32.536 27.7467 32.1443 28.054 31.6418C28.3613 31.1394 28.5253 30.5486 28.5253 29.9443C28.5253 29.1339 28.2306 28.3567 27.7062 27.7837C27.1817 27.2107 26.4704 26.8887 25.7287 26.8887ZM32.9257 8.4837L29.1098 22.035C28.8661 22.9114 28.3704 23.6786 27.6961 24.2227C27.0217 24.7668 26.2048 25.0588 25.3665 25.0554H11.5961C10.7458 25.0524 9.91928 24.7484 9.24041 24.189C8.56153 23.6296 8.06684 22.8449 7.83047 21.9525L3.04969 3.66665H1.67796C1.23294 3.66665 0.806141 3.47349 0.491462 3.12968C0.176784 2.78586 0 2.31955 0 1.83332C0 1.3471 0.176784 0.880783 0.491462 0.536968C0.806141 0.193153 1.23294 0 1.67796 0H3.47058C4.07792 0.00205002 4.66828 0.219208 5.15309 0.618896C5.63791 1.01858 5.99103 1.57925 6.1595 2.21679L7.17886 6.11108H31.3219C31.5845 6.11105 31.8434 6.17837 32.0779 6.30762C32.3123 6.43687 32.5157 6.62443 32.6717 6.85522C32.8278 7.08602 32.932 7.3536 32.9761 7.63644C33.0202 7.91928 33.003 8.20948 32.9257 8.4837ZM29.0496 9.77772H8.1367L11.0577 20.9457C11.0912 21.0735 11.1618 21.1858 11.259 21.2658C11.3561 21.3457 11.4745 21.3889 11.5961 21.3888H25.3665C25.4862 21.389 25.6029 21.3473 25.6993 21.2698C25.7957 21.1922 25.8668 21.0829 25.9021 20.9579L29.0496 9.77772Z" fill="black"/>
</svg>
