<svg width="18" height="16" viewBox="0 0 18 16" fill="none" xmlns="http://www.w3.org/2000/svg">
<path d="M9.00001 1.39117C11.403 1.39117 11.6876 1.39889 12.6369 1.43602C13.2076 1.44201 13.773 1.53192 14.3083 1.70183C14.6965 1.83026 15.0491 2.02701 15.3433 2.2794C15.6375 2.53179 15.8669 2.83423 16.0166 3.16726C16.2147 3.62649 16.3195 4.11145 16.3264 4.60107C16.3693 5.41541 16.3787 5.65952 16.3787 7.7209C16.3787 9.78229 16.3697 10.0264 16.3264 10.8407C16.3195 11.3304 16.2147 11.8153 16.0166 12.2746C15.8669 12.6076 15.6375 12.91 15.3433 13.1624C15.0491 13.4148 14.6965 13.6115 14.3083 13.74C13.773 13.9099 13.2076 13.9998 12.6369 14.0058C11.688 14.0426 11.4034 14.0506 9.00001 14.0506C6.59658 14.0506 6.312 14.0429 5.36315 14.0058C4.79239 13.9998 4.22705 13.9099 3.69172 13.74C3.3035 13.6115 2.95093 13.4148 2.65672 13.1624C2.3625 12.91 2.13315 12.6076 1.98343 12.2746C1.78536 11.8153 1.68056 11.3304 1.67357 10.8407C1.63072 10.0264 1.62129 9.78229 1.62129 7.7209C1.62129 5.65952 1.63029 5.41541 1.67357 4.60107C1.68056 4.11145 1.78536 3.62649 1.98343 3.16726C2.13315 2.83423 2.3625 2.53179 2.65672 2.2794C2.95093 2.02701 3.3035 1.83026 3.69172 1.70183C4.22705 1.53192 4.79239 1.44201 5.36315 1.43602C6.31243 1.39926 6.597 1.39117 9.00001 1.39117ZM9.00001 0C6.55715 0 6.24943 0.00882344 5.28943 0.0463232C4.54245 0.0590687 3.8034 0.180396 3.10372 0.405144C2.5035 0.599138 1.95986 0.903143 1.51072 1.29595C1.0524 1.68138 0.697712 2.148 0.471429 2.66322C0.209435 3.26343 0.0680006 3.89742 0.0531429 4.53821C0.0102858 5.36099 0 5.62496 0 7.72054C0 9.81611 0.0102857 10.0801 0.054 10.9036C0.0688577 11.5444 0.210292 12.1784 0.472286 12.7786C0.698318 13.2937 1.05271 13.7604 1.51072 14.1459C1.9601 14.5388 2.50405 14.8428 3.10457 15.0367C3.80426 15.2614 4.54331 15.3827 5.29029 15.3955C6.25029 15.4323 6.55672 15.4418 9.00086 15.4418C11.445 15.4418 11.7514 15.433 12.7114 15.3955C13.4584 15.3827 14.1975 15.2614 14.8972 15.0367C15.4948 14.8379 16.0376 14.5344 16.4907 14.1454C16.9438 13.7565 17.2973 13.2907 17.5286 12.7779C17.7906 12.1776 17.932 11.5437 17.9469 10.9029C17.9897 10.0801 18 9.81611 18 7.72054C18 5.62496 17.9897 5.36099 17.946 4.53747C17.9312 3.89668 17.7897 3.2627 17.5277 2.66248C17.3017 2.14733 16.9473 1.68071 16.4893 1.29521C16.0399 0.902318 15.496 0.598308 14.8954 0.404409C14.1958 0.179661 13.4567 0.0583334 12.7097 0.045588C11.7506 0.0088235 11.4429 0 9.00001 0Z" fill="white"/>
<path d="M9.0019 3.75724C8.08782 3.75724 7.19425 3.98977 6.43422 4.42541C5.67418 4.86106 5.0818 5.48025 4.732 6.2047C4.38219 6.92915 4.29066 7.72632 4.46899 8.49539C4.64732 9.26446 5.0875 9.9709 5.73386 10.5254C6.38022 11.0798 7.20373 11.4574 8.10025 11.6104C8.99678 11.7634 9.92605 11.6849 10.7706 11.3848C11.6151 11.0847 12.3369 10.5766 12.8447 9.92458C13.3526 9.27259 13.6236 8.50606 13.6236 7.72192C13.6236 6.67042 13.1367 5.66199 12.27 4.91847C11.4032 4.17495 10.2277 3.75724 9.0019 3.75724ZM9.0019 10.2954C8.40856 10.2954 7.82854 10.1445 7.33519 9.86172C6.84185 9.57894 6.45733 9.17701 6.23026 8.70676C6.0032 8.23651 5.94379 7.71907 6.05955 7.21985C6.1753 6.72064 6.46103 6.26209 6.88058 5.90217C7.30014 5.54226 7.83469 5.29716 8.41663 5.19786C8.99858 5.09856 9.60178 5.14952 10.15 5.34431C10.6981 5.53909 11.1667 5.86894 11.4963 6.29215C11.826 6.71537 12.0019 7.21293 12.0019 7.72192C12.0019 8.40446 11.6858 9.05904 11.1232 9.54167C10.5606 10.0243 9.79755 10.2954 9.0019 10.2954Z" fill="white"/>
<path d="M13.8052 4.52655C14.4017 4.52655 14.8852 4.11176 14.8852 3.60009C14.8852 3.08841 14.4017 2.67362 13.8052 2.67362C13.2088 2.67362 12.7252 3.08841 12.7252 3.60009C12.7252 4.11176 13.2088 4.52655 13.8052 4.52655Z" fill="white"/>
</svg>
