<svg width="11" height="10" viewBox="0 0 11 10" fill="none" xmlns="http://www.w3.org/2000/svg">
<path d="M10.4755 1.15979C10.0827 1.36598 9.66802 1.49485 9.23154 1.57216C9.66802 1.26289 10.0172 0.773196 10.17 0.180412C9.75532 0.463918 9.29701 0.670103 8.79506 0.798969C8.40223 0.309278 7.83481 0 7.22373 0C6.04524 0 5.08499 1.13402 5.08499 2.52577C5.08499 2.73196 5.10681 2.91237 5.15046 3.09278C3.38272 2.98969 1.78957 1.98454 0.720191 0.438144C0.545599 0.824742 0.436479 1.23711 0.436479 1.70103C0.436479 2.57732 0.807487 3.35052 1.39673 3.81443C1.04755 3.78866 0.720191 3.68557 0.414655 3.50515V3.53093C0.414655 4.76804 1.15667 5.79897 2.13875 6.03093C1.96416 6.08247 1.76774 6.10825 1.57133 6.10825C1.44038 6.10825 1.28761 6.08247 1.15667 6.0567C1.44038 7.06186 2.22605 7.80928 3.16448 7.80928C2.42246 8.47938 1.50585 8.89175 0.501951 8.89175C0.32736 8.89175 0.152768 8.89175 0 8.86598C0.960255 9.58763 2.07328 10 3.29542 10C7.24556 10 9.40613 6.13402 9.40613 2.7835C9.40613 2.68041 9.40613 2.55155 9.40613 2.44845C9.82079 2.1134 10.1918 1.67526 10.4755 1.15979Z" fill="white"/>
</svg>
