<svg width="38" height="35" viewBox="0 0 38 35" fill="none" xmlns="http://www.w3.org/2000/svg">
<path d="M15.2424 5.40992L26.9123 16.3357C27.0755 16.4879 27.205 16.6689 27.2934 16.8681C27.3817 17.0674 27.4272 17.2811 27.4272 17.4969C27.4272 17.7127 27.3817 17.9264 27.2934 18.1258C27.205 18.3251 27.0755 18.5062 26.9123 18.6586L15.2424 29.5961C14.9135 29.9043 14.4675 30.0776 14.0024 30.0779C13.5374 30.0781 13.0914 29.9053 12.7625 29.5974C12.4337 29.2895 12.2489 28.8718 12.2489 28.4362C12.2489 28.0005 12.4337 27.5826 12.7625 27.2744L23.194 17.4976L12.7611 7.73141C12.4322 7.42353 12.2475 7.00583 12.2475 6.57019C12.2475 6.13455 12.4322 5.71665 12.7611 5.40844C13.0899 5.10023 13.5359 4.92694 14.001 4.92671C14.4661 4.92648 14.9121 5.09931 15.2409 5.40719L15.2424 5.40992Z" fill="black"/>
</svg>
