<svg width="18" height="16" viewBox="0 0 18 16" fill="none" xmlns="http://www.w3.org/2000/svg">
<path d="M18 1.79093C17.325 2.10932 16.6125 2.30831 15.8625 2.42771C16.6125 1.95013 17.2125 1.19395 17.475 0.278589C16.7625 0.716373 15.975 1.03476 15.1125 1.23375C14.4375 0.477582 13.4625 0 12.4125 0C10.3875 0 8.73751 1.75113 8.73751 3.90025C8.73751 4.21864 8.77501 4.49723 8.85001 4.77582C5.8125 4.61662 3.075 3.06448 1.2375 0.676574C0.937501 1.27355 0.750001 1.91033 0.750001 2.6267C0.750001 3.97985 1.3875 5.1738 2.4 5.89017C1.8 5.85038 1.2375 5.69118 0.7125 5.41259V5.45239C0.7125 7.36272 1.9875 8.95466 3.675 9.31284C3.375 9.39244 3.0375 9.43224 2.7 9.43224C2.475 9.43224 2.2125 9.39244 1.9875 9.35264C2.475 10.9048 3.825 12.0589 5.4375 12.0589C4.1625 13.0937 2.5875 13.7305 0.862501 13.7305C0.5625 13.7305 0.2625 13.7305 0 13.6907C1.65 14.805 3.5625 15.4418 5.6625 15.4418C12.45 15.4418 16.1625 9.47204 16.1625 4.29823C16.1625 4.13904 16.1625 3.94005 16.1625 3.78086C16.875 3.26347 17.5125 2.5869 18 1.79093Z" fill="white"/>
</svg>
