<svg width="19" height="18" viewBox="0 0 19 18" fill="none" xmlns="http://www.w3.org/2000/svg">
<path d="M11.157 15.1997L5.30222 9.57471C5.22034 9.49632 5.15554 9.40333 5.11152 9.30106C5.0675 9.19879 5.04513 9.08926 5.0457 8.97875C5.04627 8.86825 5.06976 8.75893 5.11483 8.65708C5.1599 8.55523 5.22566 8.46284 5.30834 8.38522L11.2207 2.81501C11.3873 2.65804 11.6127 2.57047 11.8471 2.57157C12.0816 2.57266 12.306 2.66232 12.471 2.82083C12.636 2.97934 12.728 3.19371 12.7269 3.41678C12.7257 3.63985 12.6315 3.85335 12.4649 4.01032L7.17994 8.98939L12.4141 14.0174C12.5791 14.1759 12.6712 14.3903 12.67 14.6134C12.6689 14.8365 12.5746 15.05 12.408 15.2069C12.2414 15.3639 12.0161 15.4515 11.7816 15.4504C11.5472 15.4493 11.3227 15.3596 11.1578 15.2011L11.157 15.1997Z" fill="#ACACAC"/>
</svg>
