<svg width="11" height="11" viewBox="0 0 11 11" fill="none" xmlns="http://www.w3.org/2000/svg">
<path d="M5.5 0.967039C6.9685 0.967039 7.1424 0.972406 7.72252 0.998218C8.07132 1.00238 8.4168 1.06488 8.74395 1.18299C8.9812 1.27227 9.19665 1.40903 9.37645 1.58447C9.55625 1.75992 9.69641 1.97015 9.7879 2.20165C9.90895 2.52087 9.97299 2.85799 9.97726 3.19833C10.0035 3.7644 10.0092 3.93409 10.0092 5.36702C10.0092 6.79994 10.0037 6.96963 9.97726 7.5357C9.97299 7.87605 9.90895 8.21316 9.7879 8.53238C9.69641 8.76388 9.55625 8.97412 9.37645 9.14956C9.19665 9.325 8.9812 9.46177 8.74395 9.55104C8.4168 9.66915 8.07132 9.73165 7.72252 9.73582C7.14267 9.76137 6.96876 9.76699 5.5 9.76699C4.03124 9.76699 3.85733 9.76163 3.27748 9.73582C2.92868 9.73165 2.5832 9.66915 2.25605 9.55104C2.0188 9.46177 1.80335 9.325 1.62355 9.14956C1.44375 8.97412 1.30359 8.76388 1.2121 8.53238C1.09105 8.21316 1.02701 7.87605 1.02274 7.5357C0.996548 6.96963 0.990786 6.79994 0.990786 5.36702C0.990786 3.93409 0.996286 3.7644 1.02274 3.19833C1.02701 2.85799 1.09105 2.52087 1.2121 2.20165C1.30359 1.97015 1.44375 1.75992 1.62355 1.58447C1.80335 1.40903 2.0188 1.27227 2.25605 1.18299C2.5832 1.06488 2.92868 1.00238 3.27748 0.998218C3.85759 0.972662 4.0315 0.967039 5.5 0.967039ZM5.5 0C4.00714 0 3.8191 0.00613342 3.23243 0.0322005C2.77594 0.0410603 2.3243 0.125398 1.89671 0.281627C1.52992 0.416477 1.19769 0.6278 0.923214 0.900849C0.643133 1.16877 0.426379 1.49313 0.288095 1.85128C0.127988 2.2685 0.0415559 2.7092 0.0324762 3.15463C0.00628573 3.72658 0 3.91007 0 5.36676C0 6.82345 0.0062857 7.00695 0.033 7.5794C0.0420797 8.02483 0.128512 8.46553 0.288619 8.88276C0.42675 9.24085 0.643322 9.56521 0.923214 9.83318C1.19784 10.1063 1.53025 10.3176 1.89724 10.4524C2.32482 10.6086 2.77646 10.693 3.23295 10.7018C3.81962 10.7274 4.00688 10.734 5.50052 10.734C6.99417 10.734 7.18143 10.7279 7.76809 10.7018C8.22458 10.693 8.67622 10.6086 9.10381 10.4524C9.46905 10.3143 9.80073 10.1033 10.0776 9.83288C10.3545 9.56251 10.5706 9.23873 10.7119 8.88224C10.872 8.46502 10.9584 8.02432 10.9675 7.57889C10.9937 7.00694 11 6.82345 11 5.36676C11 3.91007 10.9937 3.72658 10.967 3.15412C10.9579 2.70869 10.8715 2.26799 10.7114 1.85077C10.5732 1.49267 10.3567 1.16831 10.0768 0.900338C9.80216 0.627226 9.46975 0.4159 9.10276 0.281116C8.67518 0.124887 8.22353 0.0405492 7.76705 0.0316895C7.1809 0.00613346 6.99286 0 5.5 0Z" fill="white"/>
<path d="M5.50112 2.6119C4.94251 2.6119 4.39644 2.77354 3.93198 3.07637C3.46751 3.37919 3.1055 3.80962 2.89173 4.3132C2.67796 4.81679 2.62203 5.37092 2.73101 5.90552C2.83999 6.44013 3.10898 6.93119 3.50398 7.31662C3.89898 7.70205 4.40223 7.96453 4.95011 8.07087C5.49799 8.17721 6.06587 8.12263 6.58196 7.91404C7.09805 7.70544 7.53916 7.35221 7.8495 6.89899C8.15985 6.44578 8.3255 5.91294 8.3255 5.36786C8.3255 4.63694 8.02793 3.93595 7.49826 3.41911C6.96858 2.90226 6.25019 2.6119 5.50112 2.6119ZM5.50112 7.15678C5.13852 7.15678 4.78406 7.05186 4.48257 6.8553C4.18108 6.65873 3.9461 6.37934 3.80734 6.05245C3.66858 5.72557 3.63227 5.36588 3.70301 5.01886C3.77375 4.67184 3.94836 4.35309 4.20476 4.10291C4.46115 3.85272 4.78782 3.68234 5.14345 3.61332C5.49908 3.54429 5.86771 3.57972 6.2027 3.71512C6.5377 3.85051 6.82403 4.07981 7.02548 4.37399C7.22693 4.66818 7.33445 5.01405 7.33445 5.36786C7.33445 5.84231 7.1413 6.29733 6.79748 6.63282C6.45366 6.96831 5.98735 7.15678 5.50112 7.15678Z" fill="white"/>
<path d="M8.43652 3.14637C8.80102 3.14637 9.09652 2.85804 9.09652 2.50236C9.09652 2.14668 8.80102 1.85835 8.43652 1.85835C8.07201 1.85835 7.77652 2.14668 7.77652 2.50236C7.77652 2.85804 8.07201 3.14637 8.43652 3.14637Z" fill="white"/>
</svg>
