<svg width="27" height="27" viewBox="0 0 27 27" fill="none" xmlns="http://www.w3.org/2000/svg">
<path d="M24.5205 22.7296L19.5118 17.7188C21.0135 15.7617 21.7147 13.3068 21.4729 10.8518C21.2312 8.39688 20.0647 6.1258 18.2101 4.49929C16.3555 2.87277 13.9516 2.01261 11.4861 2.0933C9.02062 2.17399 6.67813 3.18949 4.93383 4.93379C3.18952 6.67809 2.17403 9.02058 2.09334 11.4861C2.01265 13.9516 2.87281 16.3555 4.49932 18.2101C6.12584 20.0647 8.39692 21.2312 10.8519 21.4729C13.3068 21.7146 15.7618 21.0135 17.7188 19.5117L22.7317 24.5257C22.8494 24.6434 22.9892 24.7368 23.143 24.8005C23.2968 24.8642 23.4617 24.897 23.6282 24.897C23.7947 24.897 23.9596 24.8642 24.1134 24.8005C24.2672 24.7368 24.407 24.6434 24.5247 24.5257C24.6424 24.408 24.7358 24.2682 24.7995 24.1144C24.8632 23.9606 24.896 23.7957 24.896 23.6292C24.896 23.4627 24.8632 23.2979 24.7995 23.144C24.7358 22.9902 24.6424 22.8505 24.5247 22.7327L24.5205 22.7296ZM4.64066 11.8125C4.64066 10.394 5.06129 9.00743 5.84934 7.82802C6.6374 6.64861 7.75749 5.72937 9.06798 5.18655C10.3785 4.64373 11.8205 4.5017 13.2117 4.77843C14.6029 5.05516 15.8808 5.73821 16.8838 6.74122C17.8868 7.74422 18.5699 9.02213 18.8466 10.4133C19.1233 11.8045 18.9813 13.2466 18.4385 14.5571C17.8957 15.8675 16.9764 16.9876 15.797 17.7757C14.6176 18.5638 13.231 18.9844 11.8125 18.9844C9.91104 18.9824 8.08798 18.2262 6.74342 16.8816C5.39885 15.5371 4.64262 13.714 4.64066 11.8125Z" fill="black"/>
</svg>
