<svg width="33" height="33" viewBox="0 0 33 33" fill="none" xmlns="http://www.w3.org/2000/svg">
<path d="M16.5 2.57811C13.7465 2.57811 11.0549 3.39461 8.76542 4.92436C6.47598 6.4541 4.69158 8.62839 3.63787 11.1723C2.58416 13.7161 2.30846 16.5153 2.84564 19.2159C3.38281 21.9165 4.70874 24.3971 6.65575 26.3441C8.60276 28.2911 11.0834 29.617 13.784 30.1542C16.4845 30.6914 19.2838 30.4157 21.8277 29.362C24.3715 28.3083 26.5458 26.5239 28.0756 24.2344C29.6054 21.945 30.4219 19.2534 30.4219 16.4999C30.4178 12.8089 28.9497 9.27019 26.3397 6.66023C23.7297 4.05028 20.191 2.5822 16.5 2.57811ZM10.2571 25.339C10.9752 24.3571 11.9148 23.5584 12.9995 23.0079C14.0842 22.4573 15.2835 22.1704 16.5 22.1704C17.7165 22.1704 18.9158 22.4573 20.0005 23.0079C21.0852 23.5584 22.0248 24.3571 22.7429 25.339C20.9184 26.6329 18.7368 27.3279 16.5 27.3279C14.2632 27.3279 12.0816 26.6329 10.2571 25.339ZM12.8906 15.4687C12.8906 14.7548 13.1023 14.057 13.4989 13.4634C13.8955 12.8699 14.4592 12.4072 15.1187 12.1341C15.7783 11.8609 16.504 11.7894 17.2041 11.9287C17.9043 12.0679 18.5474 12.4117 19.0522 12.9165C19.557 13.4212 19.9007 14.0644 20.04 14.7645C20.1793 15.4647 20.1078 16.1904 19.8346 16.8499C19.5614 17.5094 19.0988 18.0731 18.5053 18.4697C17.9117 18.8663 17.2139 19.078 16.5 19.078C15.5427 19.078 14.6247 18.6977 13.9478 18.0209C13.2709 17.344 12.8906 16.4259 12.8906 15.4687ZM25.0078 23.1953C24.0052 21.92 22.7272 20.888 21.2695 20.1763C22.1985 19.2355 22.8286 18.041 23.0804 16.7431C23.3322 15.4451 23.1946 14.1017 22.6848 12.8818C22.175 11.6619 21.3158 10.6199 20.2153 9.88713C19.1148 9.1543 17.8222 8.7633 16.5 8.7633C15.1778 8.7633 13.8852 9.1543 12.7847 9.88713C11.6842 10.6199 10.825 11.6619 10.3152 12.8818C9.80541 14.1017 9.66776 15.4451 9.91958 16.7431C10.1714 18.041 10.8015 19.2355 11.7305 20.1763C10.2728 20.888 8.99481 21.92 7.99219 23.1953C6.73283 21.5988 5.94844 19.6801 5.72879 17.6586C5.50915 15.6371 5.86313 13.5947 6.75022 11.765C7.6373 9.93539 9.02165 8.39249 10.7448 7.31296C12.4679 6.23342 14.4602 5.66089 16.4935 5.66089C18.5269 5.66089 20.5192 6.23342 22.2423 7.31296C23.9655 8.39249 25.3498 9.93539 26.2369 11.765C27.124 13.5947 27.4779 15.6371 27.2583 17.6586C27.0387 19.6801 26.2543 21.5988 24.9949 23.1953H25.0078Z" fill="black"/>
</svg>
